<?xml version="1.0" encoding="UTF-8"?>
<!--Generator: Apple Native CoreSVG 232.5-->
<!DOCTYPE svg
PUBLIC "-//W3C//DTD SVG 1.1//EN"
       "http://www.w3.org/Graphics/SVG/1.1/DTD/svg11.dtd">
<svg version="1.1" xmlns="http://www.w3.org/2000/svg" xmlns:xlink="http://www.w3.org/1999/xlink" width="45.9121" height="45.6191">
 <g>
  <rect height="45.6191" opacity="0" width="45.9121" x="0" y="0"/>
  <path d="M8.00878 45.6191L37.5615 45.6191C42.8511 45.6191 45.5703 42.8999 45.5703 37.6904L45.5703 7.97752C45.5703 2.76366 42.8511 0.0488281 37.5615 0.0488281L8.00878 0.0488281C2.73925 0.0488281 0 2.74365 0 7.97752L0 37.6904C0 42.9199 2.73925 45.6191 8.00878 45.6191Z" fill="#007aff"/>
  <path d="M11.4346 7.00291C12.7573 7.00291 13.7495 7.77293 14.3247 8.83006C14.9087 7.77293 15.9365 7.00291 17.1792 7.00291C19.2104 7.00291 20.6865 8.54344 20.6865 10.6963C20.6865 13.9975 17.1221 16.9121 14.9858 18.2173C14.7705 18.3393 14.5332 18.4902 14.3447 18.4902C14.1763 18.4902 13.9277 18.3638 13.708 18.2173C11.6074 16.7588 7.98289 13.9975 7.98289 10.6963C7.98289 8.54344 9.47654 7.00291 11.4346 7.00291ZM9.59568 29.3813C8.65281 29.3813 7.98289 28.6914 7.98289 27.793C7.98289 26.9189 8.65281 26.2334 9.59568 26.2334L33.7671 26.2334C34.6611 26.2334 35.331 26.9189 35.331 27.793C35.331 28.6914 34.6611 29.3813 33.7671 29.3813ZM9.59568 37.7529C8.65281 37.7529 7.98289 37.063 7.98289 36.1934C7.98289 35.2993 8.65281 34.6006 9.59568 34.6006L27.5766 34.6006C28.4951 34.6006 29.1606 35.2993 29.1606 36.1934C29.1606 37.063 28.4951 37.7529 27.5766 37.7529Z" fill="#ffffff"/>
 </g>
</svg>
